<?xml version="1.0" encoding="UTF-8" standalone="no"?>
<svg
   xmlns:dc="http://purl.org/dc/elements/1.1/"
   xmlns:cc="http://creativecommons.org/ns#"
   xmlns:rdf="http://www.w3.org/1999/02/22-rdf-syntax-ns#"
   xmlns:svg="http://www.w3.org/2000/svg"
   xmlns="http://www.w3.org/2000/svg"
   xmlns:sodipodi="http://sodipodi.sourceforge.net/DTD/sodipodi-0.dtd"
   xmlns:inkscape="http://www.inkscape.org/namespaces/inkscape"
   width="256"
   height="256"
   version="1.1"
   id="svg20"
   sodipodi:docname="menu-grid.svg"
   inkscape:version="0.92.4 (5da689c313, 2019-01-14)">
  <metadata
     id="metadata26">
    <rdf:RDF>
      <cc:Work
         rdf:about="">
        <dc:format>image/svg+xml</dc:format>
        <dc:type
           rdf:resource="http://purl.org/dc/dcmitype/StillImage" />
        <dc:title />
      </cc:Work>
    </rdf:RDF>
  </metadata>
  <defs
     id="defs24" />
  <sodipodi:namedview
     pagecolor="#ffffff"
     bordercolor="#666666"
     borderopacity="1"
     objecttolerance="10"
     gridtolerance="10"
     guidetolerance="10"
     inkscape:pageopacity="0"
     inkscape:pageshadow="2"
     inkscape:window-width="640"
     inkscape:window-height="480"
     id="namedview22"
     showgrid="false"
     inkscape:zoom="3.0039062"
     inkscape:cx="-2.8296497"
     inkscape:cy="128"
     inkscape:current-layer="svg20" />
  <g
     id="g34"
     transform="matrix(0.92948718,0,0,0.92948718,9.025641,27.615385)">
    <path
       id="path2"
       d="m 54.9,30 h 29.4 c 2.7146,0 4.9,2.1854 4.9,4.9 v 29.4 c 0,2.7146 -2.1854,4.9 -4.9,4.9 H 54.9 C 52.1854,69.2 50,67.0146 50,64.3 V 34.9 C 50,32.1854 52.1854,30 54.9,30 Z"
       style="fill:#cccccc;stroke-width:1"
       inkscape:connector-curvature="0" />
    <path
       id="path4"
       d="m 113.3,30 h 29.4 c 2.7146,0 4.9,2.1854 4.9,4.9 v 29.4 c 0,2.7146 -2.1854,4.9 -4.9,4.9 h -29.4 c -2.7146,0 -4.9,-2.1854 -4.9,-4.9 V 34.9 c 0,-2.7146 2.1854,-4.9 4.9,-4.9 z"
       style="fill:#cccccc;stroke-width:1"
       inkscape:connector-curvature="0" />
    <path
       id="path6"
       d="m 171.7,30 h 29.4 c 2.7244,0 4.9,2.1854 4.9,4.9 v 29.4 c 0,2.7146 -2.1756,4.9 -4.9,4.9 h -29.4 c -2.7048,0 -4.9,-2.1854 -4.9,-4.9 V 34.9 c 0,-2.7146 2.1952,-4.9 4.9,-4.9 z"
       style="fill:#cccccc;stroke-width:1"
       inkscape:connector-curvature="0" />
    <path
       id="path8"
       d="m 171.7,88.4 h 29.4 c 2.7244,0 4.9,2.1854 4.9,4.9 v 29.4 c 0,2.7146 -2.1756,4.9 -4.9,4.9 h -29.4 c -2.7048,0 -4.9,-2.1854 -4.9,-4.9 V 93.3 c 0,-2.7146 2.1952,-4.9 4.9,-4.9 z"
       style="fill:#cccccc;stroke-width:1"
       inkscape:connector-curvature="0" />
    <path
       id="path10"
       d="m 113.3,88.4 h 29.4 c 2.7146,0 4.9,2.1854 4.9,4.9 v 29.4 c 0,2.7146 -2.1854,4.9 -4.9,4.9 h -29.4 c -2.7146,0 -4.9,-2.1854 -4.9,-4.9 V 93.3 c 0,-2.7146 2.1854,-4.9 4.9,-4.9 z"
       style="fill:#cccccc;stroke-width:1"
       inkscape:connector-curvature="0" />
    <path
       id="path12"
       d="m 54.9,88.4 h 29.4 c 2.7146,0 4.9,2.1854 4.9,4.9 v 29.4 c 0,2.7146 -2.1854,4.9 -4.9,4.9 H 54.9 c -2.7146,0 -4.9,-2.1854 -4.9,-4.9 V 93.3 c 0,-2.7146 2.1854,-4.9 4.9,-4.9 z"
       style="fill:#cccccc;stroke-width:1"
       inkscape:connector-curvature="0" />
    <path
       id="path14"
       d="m 54.9,146.8 h 29.4 c 2.7146,0 4.9,2.1952 4.9,4.9 v 29.4 c 0,2.7244 -2.1854,4.9 -4.9,4.9 H 54.9 c -2.7146,0 -4.9,-2.1756 -4.9,-4.9 v -29.4 c 0,-2.7048 2.1854,-4.9 4.9,-4.9 z"
       style="fill:#cccccc;stroke-width:1"
       inkscape:connector-curvature="0" />
    <path
       id="path16"
       d="m 113.3,146.8 h 29.4 c 2.7146,0 4.9,2.1952 4.9,4.9 v 29.4 c 0,2.7244 -2.1854,4.9 -4.9,4.9 h -29.4 c -2.7146,0 -4.9,-2.1756 -4.9,-4.9 v -29.4 c 0,-2.7048 2.1854,-4.9 4.9,-4.9 z"
       style="fill:#cccccc;stroke-width:1"
       inkscape:connector-curvature="0" />
    <path
       id="path18"
       d="m 171.7,146.8 h 29.4 c 2.7244,0 4.9,2.1952 4.9,4.9 v 29.4 c 0,2.7244 -2.1756,4.9 -4.9,4.9 h -29.4 c -2.7048,0 -4.9,-2.1756 -4.9,-4.9 v -29.4 c 0,-2.7048 2.1952,-4.9 4.9,-4.9 z"
       style="fill:#cccccc;stroke-width:1"
       inkscape:connector-curvature="0" />
  </g>
</svg>
