<?xml version="1.0" encoding="UTF-8" standalone="no"?>
<!-- Created with Inkscape (http://www.inkscape.org/) -->

<svg
   xmlns:dc="http://purl.org/dc/elements/1.1/"
   xmlns:cc="http://creativecommons.org/ns#"
   xmlns:rdf="http://www.w3.org/1999/02/22-rdf-syntax-ns#"
   xmlns:svg="http://www.w3.org/2000/svg"
   xmlns="http://www.w3.org/2000/svg"
   xmlns:sodipodi="http://sodipodi.sourceforge.net/DTD/sodipodi-0.dtd"
   xmlns:inkscape="http://www.inkscape.org/namespaces/inkscape"
   width="67.733337mm"
   height="67.733337mm"
   viewBox="0 0 67.733337 67.733337"
   version="1.1"
   id="svg3928"
   inkscape:version="0.92.4 (5da689c313, 2019-01-14)"
   sodipodi:docname="tux.svg">
  <defs
     id="defs3922" />
  <sodipodi:namedview
     id="base"
     pagecolor="#ffffff"
     bordercolor="#666666"
     borderopacity="1.0"
     inkscape:pageopacity="0.0"
     inkscape:pageshadow="2"
     inkscape:zoom="0.98994949"
     inkscape:cx="85.096584"
     inkscape:cy="125.40326"
     inkscape:document-units="mm"
     inkscape:current-layer="layer1"
     showgrid="false"
     inkscape:window-width="1366"
     inkscape:window-height="707"
     inkscape:window-x="0"
     inkscape:window-y="0"
     inkscape:window-maximized="1"
     fit-margin-top="0"
     fit-margin-left="0"
     fit-margin-right="0"
     fit-margin-bottom="0" />
  <metadata
     id="metadata3925">
    <rdf:RDF>
      <cc:Work
         rdf:about="">
        <dc:format>image/svg+xml</dc:format>
        <dc:type
           rdf:resource="http://purl.org/dc/dcmitype/StillImage" />
        <dc:title></dc:title>
      </cc:Work>
    </rdf:RDF>
  </metadata>
  <g
     inkscape:label="Camada 1"
     inkscape:groupmode="layer"
     id="layer1"
     transform="translate(228.90238,-189.05)">
    <g
       id="g3855"
       transform="matrix(0.41682088,0,0,0.41682088,42.687917,120.79333)"
       inkscape:export-xdpi="96"
       inkscape:export-ydpi="96">
      <rect
         style="opacity:0;fill:#cccccc;stroke-width:0.33513889"
         y="163.7554"
         x="-651.57556"
         height="162.49986"
         width="162.49986"
         id="rect3849" />
      <path
         style="opacity:1;vector-effect:none;fill:#1a1a1a;fill-opacity:1;fill-rule:evenodd;stroke:none;stroke-width:12.07193375;stroke-linecap:round;stroke-linejoin:bevel;stroke-miterlimit:4;stroke-dasharray:none;stroke-dashoffset:0;stroke-opacity:1"
         d="m -570.32555,173.57119 c -19.90928,-1.6e-4 -36.0486,16.13864 -36.04844,36.04793 -0.0517,3.54151 -0.28192,7.48345 -0.7152,11.41688 -0.62822,8.82192 -1.93934,10.34012 -9.67123,15.80265 -8.02878,5.69978 -15.13367,11.92523 -20.21168,20.66023 -2.61255,3.43973 -2.41853,8.59082 1.87275,8.77105 2.70293,-0.43031 4.41367,-1.84797 6.67916,-3.09181 3.48181,-1.90835 6.65642,-3.32905 9.74204,-4.6085 -0.61635,2.6248 -0.99883,5.31731 -1.03198,8.14369 0,11.14845 3.69557,21.43293 9.92653,29.69844 l -9.73944,10.79986 c -2.3299,2.84544 -2.11929,4.94889 -0.81029,6.43733 1.11908,1.56577 3.53833,2.76953 8.14729,2.79053 l 7.44606,-0.19585 h 68.82836 l 7.44606,0.19585 c 4.60897,-0.021 7.02874,-1.22476 8.14782,-2.79053 1.30898,-1.48844 1.51909,-3.59189 -0.8108,-6.43733 l -9.73946,-10.79934 c 6.23114,-8.26556 9.92653,-18.55035 9.92653,-29.69896 -0.0331,-2.82638 -0.41562,-5.51889 -1.03198,-8.14369 3.08565,1.27943 6.26027,2.70012 9.74204,4.6085 2.2655,1.24384 3.97625,2.6615 6.67917,3.09181 4.29127,-0.18018 4.48584,-5.33132 1.87328,-8.77105 -5.07804,-8.735 -12.18344,-14.96045 -20.2122,-20.66023 -7.7319,-5.46253 -9.04304,-6.98073 -9.67125,-15.80265 -0.43329,-3.93343 -0.66359,-7.87537 -0.7152,-11.41688 1.6e-4,-19.90929 -16.13862,-36.04809 -36.04794,-36.04793 z"
         id="path224" />
      <path
         style="opacity:1;vector-effect:none;fill:#ffffff;fill-opacity:1;fill-rule:evenodd;stroke:none;stroke-width:12.07193375;stroke-linecap:round;stroke-linejoin:bevel;stroke-miterlimit:4;stroke-dasharray:none;stroke-dashoffset:0;stroke-opacity:1"
         d="m -589.49905,201.30852 a 6.971498,6.971498 0 0 1 6.97166,6.97167 6.971498,6.971498 0 0 1 -6.97166,6.97166 6.971498,6.971498 0 0 1 -6.97167,-6.97166 6.971498,6.971498 0 0 1 6.97167,-6.97167 z"
         id="path222" />
      <path
         style="opacity:1;vector-effect:none;fill:#ffffff;fill-opacity:1;fill-rule:evenodd;stroke:none;stroke-width:12.07193375;stroke-linecap:round;stroke-linejoin:bevel;stroke-miterlimit:4;stroke-dasharray:none;stroke-dashoffset:0;stroke-opacity:1"
         d="m -551.15255,201.30852 a 6.971498,6.971498 0 0 1 6.97115,6.97167 6.971498,6.971498 0 0 1 -6.97115,6.97166 6.971498,6.971498 0 0 1 -6.97166,-6.97166 6.971498,6.971498 0 0 1 6.97166,-6.97167 z"
         id="path220" />
      <path
         style="opacity:1;vector-effect:none;fill:#ffffff;fill-opacity:1;fill-rule:evenodd;stroke:none;stroke-width:12.07193375;stroke-linecap:round;stroke-linejoin:bevel;stroke-miterlimit:4;stroke-dasharray:none;stroke-dashoffset:0;stroke-opacity:1"
         d="m -570.33123,217.65326 h 0.0109 c 3.20434,0.018 6.40808,0.59242 9.5901,1.73012 l 0.0641,0.0274 c 0.65189,0.27214 1.8123,0.76713 2.71301,1.85312 0.90059,1.08597 1.36571,2.86539 0.68317,4.85913 l -0.0801,0.18139 -1.0511,2.01745 c 3.34886,1.54249 6.95284,4.13374 10.96677,8.44909 7.96309,6.83557 13.14033,19.4478 13.15682,29.94236 1.5e-4,19.90929 -16.13917,36.0486 -36.04844,36.04844 -19.90929,1.6e-4 -36.0481,-16.13915 -36.04794,-36.04844 0.0164,-10.49456 5.19329,-23.10679 13.1563,-29.94236 4.01275,-4.31407 7.61566,-6.9054 10.9637,-8.44806 l -1.05267,-2.01848 -0.0749,-0.18139 c -0.68258,-1.99374 -0.21704,-3.77316 0.68368,-4.85913 0.90072,-1.08599 2.05547,-1.58109 2.70732,-1.85312 l 0.0641,-0.0274 c 3.18186,-1.13764 6.39072,-1.71372 9.59528,-1.73012 z"
         id="path218" />
      <path
         style="opacity:1;vector-effect:none;fill:#ff7f2a;fill-opacity:1;fill-rule:evenodd;stroke:none;stroke-width:12.07193375;stroke-linecap:round;stroke-linejoin:bevel;stroke-miterlimit:4;stroke-dasharray:none;stroke-dashoffset:0;stroke-opacity:1"
         d="m -570.33123,220.29651 c -2.8829,0.0168 -5.7658,0.54006 -8.6713,1.57509 -0.54919,0.23209 -1.26114,0.60223 -1.66087,1.08418 -0.40354,0.48678 -0.64656,0.99763 -0.21344,2.28564 l 6.67504,12.79922 c 0.002,0.003 0.003,0.003 0.005,0.006 1.39896,2.41891 2.6488,2.87631 3.8127,2.82464 h 0.11782 c 1.16377,0.0519 2.41369,-0.40573 3.81267,-2.82464 l 6.67971,-12.8049 c 0.43318,-1.28801 0.19033,-1.79886 -0.21343,-2.28565 -0.39974,-0.48195 -1.11116,-0.85154 -1.66036,-1.08365 -2.9055,-1.03504 -5.78879,-1.55922 -8.67233,-1.57562 h -0.0103 z"
         id="path3851" />
    </g>
  </g>
</svg>
