<?xml version="1.0" encoding="UTF-8" standalone="no"?>
<!-- Created with Inkscape (http://www.inkscape.org/) -->

<svg
   xmlns:dc="http://purl.org/dc/elements/1.1/"
   xmlns:cc="http://creativecommons.org/ns#"
   xmlns:rdf="http://www.w3.org/1999/02/22-rdf-syntax-ns#"
   xmlns:svg="http://www.w3.org/2000/svg"
   xmlns="http://www.w3.org/2000/svg"
   xmlns:sodipodi="http://sodipodi.sourceforge.net/DTD/sodipodi-0.dtd"
   xmlns:inkscape="http://www.inkscape.org/namespaces/inkscape"
   width="22"
   height="22"
   viewBox="0 0 5.8208332 5.8208335"
   version="1.1"
   id="svg8"
   inkscape:version="0.92.4 (5da689c313, 2019-01-14)"
   sodipodi:docname="updates-none.svg">
  <defs
     id="defs2" />
  <sodipodi:namedview
     id="base"
     pagecolor="#ffffff"
     bordercolor="#666666"
     borderopacity="1.0"
     inkscape:pageopacity="0.0"
     inkscape:pageshadow="2"
     inkscape:zoom="22.4"
     inkscape:cx="16.919995"
     inkscape:cy="11.198646"
     inkscape:document-units="mm"
     inkscape:current-layer="layer1"
     showgrid="false"
     units="px" />
  <metadata
     id="metadata5">
    <rdf:RDF>
      <cc:Work
         rdf:about="">
        <dc:format>image/svg+xml</dc:format>
        <dc:type
           rdf:resource="http://purl.org/dc/dcmitype/StillImage" />
        <dc:title></dc:title>
      </cc:Work>
    </rdf:RDF>
  </metadata>
  <g
     inkscape:label="Camada 1"
     inkscape:groupmode="layer"
     id="layer1"
     transform="translate(0,-291.17915)">
    <path
       style="opacity:1;vector-effect:none;fill:#e6e6e6;fill-opacity:1;fill-rule:evenodd;stroke:none;stroke-width:5.02866364;stroke-linecap:round;stroke-linejoin:bevel;stroke-miterlimit:4;stroke-dasharray:none;stroke-dashoffset:0;stroke-opacity:1"
       d="M 8.9042969 3.1757812 L 7.8417969 5.5292969 L 5.2734375 5.2734375 L 5.5292969 7.8417969 L 3.1757812 8.9042969 L 4.6816406 11 L 3.1757812 13.095703 L 5.5292969 14.158203 L 5.2734375 16.726562 L 7.8417969 16.470703 L 8.9042969 18.824219 L 11 17.318359 L 13.095703 18.824219 L 14.158203 16.470703 L 16.726562 16.726562 L 16.470703 14.158203 L 18.824219 13.095703 L 17.318359 11 L 18.824219 8.9042969 L 16.470703 7.8417969 L 16.726562 5.2734375 L 14.158203 5.5292969 L 13.095703 3.1757812 L 11 4.6816406 L 8.9042969 3.1757812 z M 9.6738281 7.3300781 L 12.326172 7.3300781 L 12.326172 11.644531 L 14.003906 11.644531 L 11 15.025391 L 7.9960938 11.644531 L 9.6738281 11.644531 L 9.6738281 7.3300781 z "
       transform="matrix(0.26458333,0,0,0.26458333,0,291.17915)"
       id="path122" />
  </g>
</svg>
